# xmcd
#
# Track frame offsets:
#	150
#	36265
#	53306
#	72102
#	90038
#	112049
#	136346
#	154366
#	173225
#	191347
#	210439
#	228874
#	247333
#	267124
#	293663
#	313987
#	335587
#
# Disc length: 4658 seconds
#
# Revision: 1
# Processed by: cddbd v1.5.2PL0 Copyright (c) Steve Scherf et al.
# Submitted via: audiograbber 1.83.01
#
DISCID=ec123011
DTITLE=Various Artist - Soul Inspired [CD2]
DYEAR=2003
DGENRE=Soul and R&B
TTITLE0=Alicia Myers - You Get the Best from Me (Say, Say, Say)
TTITLE1=Peabo Bryson - I've Been Down
TTITLE2=DJ Jazzy Jeff Ft. Raheem - My Peoples
TTITLE3=Andreus - Mississippi
TTITLE4=Lewis Taylor - Lovelight
TTITLE5=Dee Ellington Ft. Uschi Classen - Soul Magic
TTITLE6=Peggi Blu - Can't Go Back
TTITLE7=3D - 2Nite [Remix]
TTITLE8=Count Basic and Kelli Sae - Higher
TTITLE9=Shabazz - Will You Be There
TTITLE10=Baby Lee - Goodbye [M Doc Remix]
TTITLE11=Bob Baldwin - Too Late
TTITLE12=The Cynthia Biggs Project Ft. Sharon Bryant - Can't Outlove This Love
TTITLE13=Don Blackman - Can You See the Son
TTITLE14=C&C Music Factory - Share the Beat of Love
TTITLE15=Midnight Star - Curious
TTITLE16=Patti LaBelle - Love, Need and Want You
EXTD=
EXTT0=
EXTT1=
EXTT2=
EXTT3=
EXTT4=
EXTT5=
EXTT6=
EXTT7=
EXTT8=
EXTT9=
EXTT10=
EXTT11=
EXTT12=
EXTT13=
EXTT14=
EXTT15=
EXTT16=
PLAYORDER=
